<svg width="81" height="81" viewBox="0 0 81 81" fill="none" xmlns="http://www.w3.org/2000/svg">
<rect x="1.24438" y="0.696289" width="79" height="79" rx="39.5" stroke="#303030"/>
<path fill-rule="evenodd" clip-rule="evenodd" d="M47.2444 22.3213C47.2444 21.8903 47.4156 21.477 47.7203 21.1722C48.0251 20.8675 48.4384 20.6963 48.8694 20.6963H58.6194C59.0504 20.6963 59.4637 20.8675 59.7684 21.1722C60.0732 21.477 60.2444 21.8903 60.2444 22.3213V32.0713C60.2444 32.5023 60.0732 32.9156 59.7684 33.2203C59.4637 33.5251 59.0504 33.6963 58.6194 33.6963C58.1884 33.6963 57.7751 33.5251 57.4703 33.2203C57.1656 32.9156 56.9944 32.5023 56.9944 32.0713V26.243L46.7677 36.4696C46.619 36.6293 46.4396 36.7573 46.2402 36.8461C46.0409 36.935 45.8257 36.9827 45.6075 36.9866C45.3893 36.9904 45.1726 36.9503 44.9703 36.8686C44.7679 36.7868 44.5841 36.6652 44.4298 36.5109C44.2755 36.3566 44.1539 36.1728 44.0721 35.9704C43.9904 35.7681 43.9503 35.5513 43.9541 35.3332C43.958 35.115 44.0057 34.8998 44.0945 34.7005C44.1833 34.5011 44.3114 34.3217 44.4711 34.173L54.6977 23.9463H48.8694C48.4384 23.9463 48.0251 23.7751 47.7203 23.4703C47.4156 23.1656 47.2444 22.7523 47.2444 22.3213Z" fill="#E8BC0D"/>
<path fill-rule="evenodd" clip-rule="evenodd" d="M17.9944 23.9463C17.9944 22.2224 18.6792 20.5691 19.8982 19.3501C21.1172 18.1311 22.7705 17.4463 24.4944 17.4463H27.4671C29.3304 17.4463 30.9554 18.716 31.4082 20.523L33.8024 30.1061C33.9964 30.8818 33.9572 31.6975 33.6897 32.4509C33.4223 33.2044 32.9384 33.8622 32.2987 34.342L29.4972 36.4436C29.2047 36.6625 29.1419 36.9831 29.2242 37.2063C30.447 40.5318 32.378 43.5518 34.8834 46.0572C37.3889 48.5627 40.4089 50.4936 43.7344 51.7165C43.9576 51.7988 44.2761 51.736 44.4971 51.4435L46.5987 48.642C47.0784 48.0023 47.7362 47.5184 48.4897 47.2509C49.2432 46.9835 50.0589 46.9443 50.8346 47.1383L60.4177 49.5325C62.2247 49.9853 63.4944 51.6103 63.4944 53.4758V56.4463C63.4944 58.1702 62.8096 59.8235 61.5906 61.0425C60.3716 62.2615 58.7183 62.9463 56.9944 62.9463H52.1194C33.2737 62.9463 17.9944 47.667 17.9944 28.8213V23.9463Z" fill="#E8BC0D"/>
</svg>
